<svg width="120" height="170" viewBox="0 0 120 170" fill="none" xmlns="http://www.w3.org/2000/svg">
<path fill-rule="evenodd" clip-rule="evenodd" d="M48 0H60C66.6274 0 72 5.37259 72 12V50.0485C75.7533 48.7219 79.7924 48 84 48C103.882 48 120 64.1178 120 84C120 103.882 103.882 120 84 120C64.1178 120 48 103.882 48 84V0ZM84 96C77.3726 96 72 90.6274 72 84C72 77.3726 77.3726 72 84 72C90.6274 72 96 77.3726 96 84C96 90.6274 90.6274 96 84 96Z" fill="url(#paint0_linear_69_22)"/>
<path d="M24 62C24 55.3726 18.6274 50 12 50H0L2.24109e-06 86C0 105.882 16.1178 122 36 122C40.2076 122 44.2467 121.278 48 119.952V134C48 140.627 42.6274 146 36 146C29.3726 146 24 140.627 24 134C24 127.373 18.6274 122 12 122H2.24109e-06L0 134C0 153.882 16.1178 170 36 170C55.8823 170 72 153.882 72 134V50H60C59.5858 50 59.1765 50.021 58.7731 50.062C52.722 50.6765 48 55.7868 48 62V86C48 92.6274 42.6274 98 36 98C29.3726 98 24 92.6274 24 86V62Z" fill="url(#paint1_linear_69_22)"/>
<defs>
<linearGradient id="paint0_linear_69_22" x1="48" y1="-9.65595e-07" x2="99" y2="117" gradientUnits="userSpaceOnUse">
<stop stop-color="#00DC82"/>
<stop offset="1" stop-color="#023034"/>
</linearGradient>
<linearGradient id="paint1_linear_69_22" x1="72" y1="74.2393" x2="-12.5" y2="158.739" gradientUnits="userSpaceOnUse">
<stop stop-color="#00DC82"/>
<stop offset="1" stop-color="#020420"/>
</linearGradient>
</defs>
</svg>
